<?xml version="1.0" encoding="UTF-8"?><svg id="a" xmlns="http://www.w3.org/2000/svg" width="200" height="119" viewBox="0 0 200 119"><path d="M56.13,97.99v-5.2h2.67v13h-2.67v-5.8h-3.06v5.8h-2.67v-13h2.67v5.2h3.06Z" fill="#002e5e" stroke-width="0"/><path d="M61.2,105.79v-13h6.97v2h-4.3v3.21h3.96v2h-3.96v3.8h4.44v2h-7.11Z" fill="#002e5e" stroke-width="0"/><path d="M69.15,105.79l3.54-13h3.52l3.47,13h-2.81l-.71-2.88h-3.64l-.73,2.88h-2.63ZM74.3,95.29h-.03l-1.22,5.62h2.55l-1.29-5.62Z" fill="#002e5e" stroke-width="0"/><path d="M81.03,105.79v-13h2.67v10.84h4v2.16h-6.67Z" fill="#002e5e" stroke-width="0"/><path d="M95.53,92.78v2.16h-2.97v10.84h-2.67v-10.84h-2.97v-2.16h8.61Z" fill="#002e5e" stroke-width="0"/><path d="M102.67,97.99v-5.2h2.67v13h-2.67v-5.8h-3.06v5.8h-2.67v-13h2.67v5.2h3.06Z" fill="#002e5e" stroke-width="0"/><path d="M111.77,92.78h4.81c2.44,0,3.4,1.51,3.4,3.89,0,1.48-.42,3.82-3.55,3.82h-1.98v5.3h-2.67v-13ZM114.44,98.49h1.49c.8,0,1.34-.88,1.34-1.75,0-1.06-.28-1.96-1.49-1.96h-1.34v3.71Z" fill="#002e5e" stroke-width="0"/><path d="M121.69,105.79v-13h2.67v10.84h4v2.16h-6.67Z" fill="#002e5e" stroke-width="0"/><path d="M128.64,105.79l3.54-13h3.52l3.47,13h-2.81l-.71-2.88h-3.64l-.73,2.88h-2.63ZM133.78,95.29h-.03l-1.22,5.62h2.55l-1.29-5.62Z" fill="#002e5e" stroke-width="0"/><path d="M140.52,105.79v-13h3.61l3.4,9.01h.03v-9.01h2.49v13h-3.52l-3.48-9.51h-.04v9.51h-2.49Z" fill="#002e5e" stroke-width="0"/><path d="M15.95,111.96c-.21,0-.36.02-.46.07-.1.04-.18.12-.22.24-.04.11-.07.28-.09.51l-.04.77c-.02.52-.04,1.05-.06,1.58-.02.66-.08,1.18-.16,1.54-.2.79-.58,1.3-1.15,1.56-.57.25-1.1.38-1.61.38-.72,0-1.32-.16-1.8-.49-.32-.22-.55-.47-.7-.75-.15-.29-.24-.58-.28-.89-.04-.31-.05-.7-.05-1.18v-1.92c0-.13,0-.22,0-.27,0-.33,0-.53-.02-.6-.03-.21-.1-.35-.21-.42s-.31-.11-.58-.13v-.37h3.11v.37c-.34.02-.56.06-.67.12-.11.06-.18.18-.21.36-.03.18-.04.54-.05,1.08v1.61c0,.52.03.94.08,1.27s.18.63.38.92c.27.39.68.58,1.26.58.92,0,1.51-.44,1.76-1.32.14-.47.21-1.35.21-2.64,0-.71,0-1.13-.02-1.29-.01-.2-.05-.34-.13-.44-.07-.09-.17-.15-.28-.18s-.31-.05-.57-.08v-.37h2.63v.37h-.05Z" fill="#002e5e" stroke-width="0"/><path d="M19.45,118.44h-2.81v-.37c.23-.01.39-.03.49-.04.1-.01.18-.05.24-.11.06-.06.1-.15.13-.27.05-.25.1-1.68.13-4.29l.02-.94c-.19-.17-.35-.29-.47-.35-.12-.06-.3-.09-.53-.11v-.37h2.07c.31.44.56.78.73,1.01s.5.64.98,1.24l1.92,2.37v-3.06c0-.4-.03-.67-.06-.81-.04-.14-.13-.23-.27-.28-.14-.05-.41-.08-.8-.09v-.37h2.71v.37c-.26,0-.44.04-.55.09s-.18.17-.22.33c-.04.16-.06.45-.06.85l-.09,5.29h-.42l-.61-.76-.93-1.16-2.73-3.33v3.55c0,.39.02.66.07.81.04.15.14.25.28.3.14.05.4.1.79.14v.37Z" fill="#002e5e" stroke-width="0"/><path d="M27.58,118.44h-2.84v-.38c.24-.03.41-.07.52-.11.11-.04.18-.12.22-.23.04-.11.07-.29.07-.53v-3.65c0-.53-.02-.89-.05-1.07-.02-.18-.08-.3-.18-.36-.1-.06-.29-.12-.59-.16v-.37h2.84v.37c-.29.03-.49.08-.59.13-.1.06-.16.18-.18.36-.02.18-.04.54-.04,1.09v2.77c0,.6,0,1,.03,1.21.02.2.09.34.2.41s.3.12.58.13v.38Z" fill="#002e5e" stroke-width="0"/><path d="M34.66,112.13c-.12.08-.23.22-.32.41-.1.19-.25.55-.47,1.06l-2.1,4.98h-.37l-1.88-5.06c-.18-.5-.31-.83-.4-1.01-.08-.18-.18-.3-.29-.38-.11-.08-.29-.13-.53-.17v-.37h3.27v.37c-.23,0-.4.02-.52.04-.12.02-.22.06-.29.12s-.11.16-.11.28c0,.09.02.19.05.3.03.11.09.32.19.63l1.08,3.15,1.28-3.27c.13-.4.2-.64.2-.73,0-.22-.08-.36-.24-.42-.16-.06-.38-.09-.67-.1v-.37h2.65v.37c-.23.04-.4.09-.52.18Z" fill="#002e5e" stroke-width="0"/><path d="M40.88,118.44h-5.25v-.38c.25-.02.43-.06.54-.1.11-.04.18-.12.22-.22.04-.11.06-.29.07-.56.01-.22.02-.61.02-1.18v-2.41c0-.65-.02-1.07-.05-1.24-.04-.15-.11-.25-.21-.29-.1-.04-.29-.08-.58-.1v-.37h4.91l.04,1.63h-.32c-.05-.31-.13-.53-.26-.67-.12-.14-.29-.24-.51-.28-.22-.04-.54-.06-.97-.06h-.85v2.41h.75c.29,0,.51-.02.66-.07.14-.05.25-.13.3-.24s.1-.28.12-.5h.33v2.26h-.33c0-.26-.03-.44-.09-.56-.06-.12-.17-.19-.32-.23s-.38-.05-.68-.05h-.74v1.92c0,.24.08.41.23.52.15.11.44.16.88.16s.78-.01.99-.04c.21-.03.4-.13.57-.29s.29-.44.36-.82h.33c-.1.75-.15,1.35-.15,1.77Z" fill="#002e5e" stroke-width="0"/><path d="M43.71,115.37v.89c0,.6.02,1.01.05,1.23.02.22.09.37.2.45.11.08.31.12.59.13v.38h-2.88v-.38c.26-.02.44-.05.55-.1.11-.05.18-.13.22-.25.04-.12.06-.31.06-.57,0-.19,0-.48,0-.88v-2.48c0-.69-.01-1.14-.04-1.33-.02-.19-.09-.31-.19-.37-.11-.06-.31-.1-.61-.13v-.37h3.12c.79,0,1.37.16,1.71.49s.52.75.52,1.28c0,.37-.12.73-.35,1.08s-.57.59-1.01.73l1.22,2.11c.15.27.28.47.4.62s.23.24.36.31c.12.07.28.11.47.13v.23c-.19.01-.34.02-.45.02-.43,0-.79-.05-1.07-.16s-.52-.27-.72-.5c-.2-.23-.4-.54-.58-.94l-.38-.8c-.14-.29-.26-.49-.35-.6-.1-.11-.19-.18-.29-.19-.1-.02-.28-.03-.56-.04ZM43.71,112.23v2.53c.19.05.41.07.64.07.25,0,.48-.06.69-.17.21-.11.38-.26.51-.44s.2-.36.21-.55c.02-.44-.1-.79-.36-1.07s-.68-.41-1.28-.41c-.16,0-.29.01-.42.04Z" fill="#002e5e" stroke-width="0"/><path d="M48.36,118.52l-.15-2.12.35-.04c.19.57.46,1,.79,1.29.33.29.75.43,1.26.43.4,0,.72-.09.98-.27s.39-.44.39-.79-.11-.6-.32-.78c-.22-.18-.47-.33-.76-.44-.15-.06-.29-.11-.41-.15-.02-.01-.08-.03-.18-.06l-.24-.09c-.44-.16-.82-.38-1.14-.66-.32-.29-.48-.72-.48-1.3,0-.41.1-.77.3-1.07.2-.3.46-.53.79-.69s.7-.24,1.1-.24c.57,0,1.1.16,1.58.47l.41-.31.23,2.04-.34.06c-.06-.23-.12-.42-.19-.55-.06-.13-.16-.28-.29-.46-.32-.42-.77-.63-1.35-.63-.36,0-.64.08-.85.24s-.31.38-.31.65c0,.25.07.46.22.63.14.17.32.3.53.4.21.1.49.2.83.31.47.15.8.28.99.4.29.17.53.4.71.71.19.3.28.65.28,1.04s-.1.76-.31,1.09-.49.59-.86.79-.79.29-1.26.29c-.41,0-.75-.05-1.03-.16-.27-.11-.53-.24-.76-.39l-.51.36Z" fill="#002e5e" stroke-width="0"/><path d="M56.56,118.44h-2.84v-.38c.24-.03.41-.07.52-.11.11-.04.18-.12.22-.23.04-.11.07-.29.07-.53v-3.65c0-.53-.02-.89-.05-1.07-.02-.18-.08-.3-.18-.36-.1-.06-.29-.12-.59-.16v-.37h2.84v.37c-.29.03-.49.08-.59.13-.1.06-.16.18-.18.36-.02.18-.04.54-.04,1.09v2.77c0,.6,0,1,.03,1.21.02.2.09.34.2.41s.3.12.58.13v.38Z" fill="#002e5e" stroke-width="0"/><path d="M63.3,113.51c-.02-.37-.08-.64-.18-.81-.1-.17-.23-.27-.39-.31-.16-.04-.39-.06-.68-.06h-.97v5.04c0,.28.06.48.17.6.11.12.33.18.64.19v.29h-2.85v-.29c.31,0,.52-.07.64-.19.12-.12.18-.32.18-.6v-5.04h-.97c-.29,0-.52.02-.68.06-.16.04-.29.15-.39.31-.1.17-.16.44-.18.81h-.36l.05-1.91h6.27l.05,1.91h-.36Z" fill="#002e5e" stroke-width="0"/><path d="M70.79,112.08c-.14.07-.3.21-.45.4-.16.2-.38.52-.66.98l-1.07,1.78v1.43c0,.46.02.77.05.94s.11.28.24.34c.13.06.38.1.74.13v.37h-3.39v-.37c.31-.04.52-.07.63-.09s.19-.07.25-.13c.08-.07.13-.17.14-.29.01-.12.03-.38.03-.79v-1.2l-1.83-2.81c-.19-.28-.32-.46-.4-.55s-.17-.15-.27-.18c-.1-.03-.27-.05-.51-.07v-.38h3.59v.38c-.4.01-.68.04-.83.08-.15.04-.22.14-.22.29,0,.08.02.17.07.27.05.1.13.24.23.41l1.05,1.72.97-1.71c.18-.34.27-.57.27-.69,0-.1-.03-.18-.09-.22-.06-.05-.13-.08-.22-.09-.09-.01-.24-.03-.45-.05v-.38h2.69v.38c-.24,0-.43.05-.58.12Z" fill="#002e5e" stroke-width="0"/><path d="M81.9,115.12c0,.76-.16,1.41-.47,1.96-.31.55-.73.96-1.26,1.24-.52.28-1.1.42-1.72.42-.67,0-1.27-.15-1.82-.45s-.97-.73-1.28-1.28c-.31-.55-.47-1.18-.47-1.89,0-.63.14-1.22.41-1.77.27-.54.67-.98,1.19-1.3.52-.33,1.14-.49,1.85-.49s1.3.15,1.84.45.96.72,1.26,1.27c.3.54.45,1.16.45,1.85ZM78.46,118.09c.23,0,.47-.07.71-.21.24-.13.46-.35.65-.64.21-.32.36-.65.44-.97.08-.32.12-.69.12-1.1,0-1.07-.26-1.88-.78-2.44-.37-.38-.79-.57-1.24-.56-.45,0-.85.2-1.21.6-.47.53-.71,1.27-.71,2.2,0,.48.05.9.14,1.25s.26.71.5,1.05c.2.29.43.49.67.62.24.12.48.18.71.18Z" fill="#002e5e" stroke-width="0"/><path d="M83.1,116.01v-2.41c0-.65-.02-1.07-.05-1.24-.04-.15-.11-.25-.21-.29-.1-.04-.29-.08-.58-.11v-.37h5.06l.11,1.68h-.34c-.06-.35-.15-.6-.28-.74-.13-.15-.3-.24-.52-.27-.22-.03-.59-.05-1.09-.05-.37,0-.66.01-.88.04v2.37h.9c.31,0,.53-.02.67-.05.14-.03.24-.1.3-.22.06-.11.1-.29.11-.54h.33v2.26h-.33c-.01-.25-.06-.43-.16-.55s-.22-.2-.39-.23c-.16-.04-.39-.05-.68-.05h-.76v1.96c0,.26.03.44.06.55.04.11.1.19.21.23.1.04.28.08.54.1v.38h-2.85v-.38c.26-.02.44-.06.54-.1.1-.04.17-.12.21-.23.04-.11.06-.3.07-.55.01-.23.02-.62.02-1.18Z" fill="#002e5e" stroke-width="0"/><path d="M99.94,118.44h-3.02v-.37c.31-.02.52-.05.63-.1.11-.05.17-.16.2-.31.02-.16.04-.47.05-.95v-3.44l-2.4,5.27h-.6l-2.21-5.34-.05,4.03c0,.24.02.41.05.52.04.11.11.19.22.23.11.05.29.08.54.1v.37h-2.39v-.37c.29-.01.5-.05.61-.13s.18-.22.2-.44c.02-.25.04-.63.05-1.14l.1-2.87c0-.15,0-.42,0-.8,0-.23-.02-.4-.06-.5-.04-.1-.11-.16-.2-.19-.1-.03-.26-.04-.49-.05v-.37h2.17l2.14,5.2,2.37-5.2h2.09v.4c-.29.02-.49.05-.59.1-.11.05-.17.15-.2.29-.03.14-.04.41-.03.81v2.82c0,.62.01,1.09.04,1.4.02.25.09.41.19.49.1.08.3.13.59.16v.37Z" fill="#002e5e" stroke-width="0"/><path d="M103.69,118.44h-2.84v-.38c.24-.03.41-.07.52-.11.11-.04.18-.12.22-.23.04-.11.07-.29.07-.53v-3.65c0-.53-.02-.89-.05-1.07-.02-.18-.08-.3-.18-.36-.1-.06-.29-.12-.59-.16v-.37h2.84v.37c-.29.03-.49.08-.59.13-.1.06-.16.18-.18.36-.02.18-.04.54-.04,1.09v2.77c0,.6,0,1,.03,1.21.02.2.09.34.2.41s.3.12.58.13v.38Z" fill="#002e5e" stroke-width="0"/><path d="M110.27,116.73l.41.31c-.16.27-.35.52-.56.76-.21.24-.51.45-.91.65s-.88.3-1.46.3c-.68,0-1.28-.15-1.8-.46s-.92-.73-1.2-1.26-.42-1.14-.42-1.8.13-1.24.39-1.8.66-1.01,1.18-1.36c.52-.35,1.16-.52,1.9-.52.37,0,.7.04.99.13.29.09.52.18.7.29.18.11.37.24.58.41l.47-.43.04,2.07-.31.06c-.06-.2-.14-.4-.25-.58-.11-.18-.27-.39-.49-.62-.16-.17-.36-.32-.6-.46-.24-.14-.52-.21-.84-.21-.41,0-.79.11-1.13.33-.34.22-.6.54-.8.96-.2.42-.29.92-.29,1.49,0,.52.09,1.01.28,1.45.18.45.46.8.82,1.07.36.27.8.41,1.31.41.37,0,.68-.06.93-.18.26-.12.46-.25.6-.41.15-.16.3-.36.48-.6Z" fill="#002e5e" stroke-width="0"/><path d="M114.34,118.44h-2.94v-.37c.26-.02.44-.06.55-.11s.18-.14.2-.24c.03-.1.04-.28.04-.53,0-.16,0-.41,0-.73v-2.88c0-.59-.01-.96-.04-1.1-.02-.19-.08-.32-.18-.38-.1-.06-.3-.11-.59-.13v-.37h2.94v.37c-.23.02-.39.05-.5.07-.1.02-.18.06-.24.12-.06.06-.1.15-.12.27-.04.17-.05.55-.05,1.13v.94c.59.04,1.12.05,1.58.05.5,0,1.05-.02,1.63-.05v-1.15c0-.46-.02-.77-.05-.93s-.1-.27-.22-.32c-.12-.06-.35-.1-.68-.13v-.37h2.99v.37c-.29.04-.49.08-.59.13-.1.05-.16.16-.18.31-.02.16-.04.48-.04.96v2.89c0,.67.01,1.12.04,1.34.02.17.09.29.19.35.1.06.29.1.56.13v.37h-2.99v-.37c.26-.03.45-.06.57-.09.11-.03.2-.07.25-.14s.09-.18.12-.34c.01-.13.02-.45.02-.95v-1.26l-.54-.03h-.33c-.3-.02-.53-.03-.69-.03-.41,0-.88.01-1.41.04h-.24v1.27c0,.51.02.86.05,1.04.03.18.1.29.2.35.1.05.32.1.65.13v.37Z" fill="#002e5e" stroke-width="0"/><path d="M122.42,118.44h-2.84v-.38c.24-.03.41-.07.52-.11.11-.04.18-.12.22-.23.04-.11.07-.29.07-.53v-3.65c0-.53-.02-.89-.05-1.07-.02-.18-.08-.3-.18-.36-.1-.06-.29-.12-.59-.16v-.37h2.84v.37c-.29.03-.49.08-.59.13-.1.06-.16.18-.18.36-.02.18-.04.54-.04,1.09v2.77c0,.6,0,1,.03,1.21.02.2.09.34.2.41s.3.12.58.13v.38Z" fill="#002e5e" stroke-width="0"/><path d="M126.99,115.53h2.77v.37c-.22.01-.37.05-.45.13-.08.07-.13.2-.15.38-.02.18-.03.52-.04,1.02v.51c-.26.16-.5.3-.72.4-.22.11-.49.2-.82.28-.33.08-.7.12-1.12.12-.75,0-1.39-.17-1.92-.51-.53-.34-.92-.78-1.19-1.33-.27-.54-.4-1.13-.4-1.75,0-.71.15-1.34.45-1.89.3-.55.7-.97,1.22-1.28.51-.3,1.08-.45,1.7-.45.36,0,.69.04.97.11.29.08.53.16.73.27s.43.24.71.4l.36-.41.05,2.15-.28.04c-.2-.55-.49-1.02-.88-1.39-.34-.34-.79-.5-1.35-.5-.41,0-.78.11-1.12.34s-.6.57-.79,1.01c-.2.45-.29.99-.29,1.62,0,.53.08,1.02.25,1.46.17.44.41.8.74,1.06.32.26.7.4,1.13.4.49,0,.88-.19,1.19-.57.06-.09.1-.18.12-.27.02-.09.03-.22.02-.37-.01-.3-.04-.51-.09-.63-.04-.12-.12-.2-.23-.24-.11-.04-.31-.07-.6-.1v-.37Z" fill="#002e5e" stroke-width="0"/><path d="M137.33,118.44h-3.22v-.37c.29-.02.5-.06.63-.12s.2-.16.2-.33c0-.1-.02-.24-.07-.4l-.21-.7h-2.43l-.22.59c-.05.17-.08.31-.08.42,0,.22.08.36.24.42.16.06.39.1.69.12v.37h-2.83v-.37c.25-.01.45-.04.59-.09.14-.05.26-.14.35-.26.09-.12.19-.3.28-.55l1.86-5.09-.11-.16c.39-.13.67-.23.84-.31.17-.08.35-.19.53-.32.08.29.19.62.31,1.01l1.53,4.65c.1.3.18.52.26.66.08.14.18.24.31.31.13.07.31.11.56.14v.37ZM134.46,115.78l-.97-2.85-1.01,2.85h1.98Z" fill="#002e5e" stroke-width="0"/><path d="M140.59,118.44h-2.81v-.37c.23-.01.39-.03.49-.04.1-.01.18-.05.24-.11.06-.06.1-.15.13-.27.05-.25.1-1.68.13-4.29l.02-.94c-.19-.17-.35-.29-.47-.35-.12-.06-.3-.09-.53-.11v-.37h2.07c.31.44.56.78.73,1.01s.5.64.98,1.24l1.92,2.37v-3.06c0-.4-.03-.67-.06-.81-.04-.14-.13-.23-.27-.28-.14-.05-.41-.08-.8-.09v-.37h2.71v.37c-.26,0-.44.04-.55.09s-.18.17-.22.33c-.04.16-.06.45-.06.85l-.09,5.29h-.42l-.61-.76-.93-1.16-2.73-3.33v3.55c0,.39.02.66.07.81.04.15.14.25.28.3.14.05.4.1.79.14v.37Z" fill="#002e5e" stroke-width="0"/><path d="M151.81,118.44h-2.94v-.37c.26-.02.44-.06.55-.11s.18-.14.2-.24c.03-.1.04-.28.04-.53,0-.16,0-.41,0-.73v-2.88c0-.59-.01-.96-.04-1.1-.02-.19-.08-.32-.18-.38-.1-.06-.3-.11-.59-.13v-.37h2.94v.37c-.23.02-.39.05-.5.07-.1.02-.18.06-.24.12-.06.06-.1.15-.12.27-.04.17-.05.55-.05,1.13v.94c.59.04,1.12.05,1.58.05.5,0,1.05-.02,1.63-.05v-1.15c0-.46-.02-.77-.05-.93s-.1-.27-.22-.32c-.12-.06-.35-.1-.68-.13v-.37h2.99v.37c-.29.04-.49.08-.59.13-.1.05-.16.16-.18.31-.02.16-.04.48-.04.96v2.89c0,.67.01,1.12.04,1.34.02.17.09.29.19.35.1.06.29.1.56.13v.37h-2.99v-.37c.26-.03.45-.06.57-.09.11-.03.2-.07.25-.14s.09-.18.12-.34c.01-.13.02-.45.02-.95v-1.26l-.54-.03h-.33c-.3-.02-.53-.03-.69-.03-.41,0-.88.01-1.41.04h-.24v1.27c0,.51.02.86.05,1.04.03.18.1.29.2.35.1.05.32.1.65.13v.37Z" fill="#002e5e" stroke-width="0"/><path d="M162.11,118.44h-5.25v-.38c.25-.02.43-.06.54-.1.11-.04.18-.12.22-.22.04-.11.06-.29.07-.56.01-.22.02-.61.02-1.18v-2.41c0-.65-.02-1.07-.05-1.24-.04-.15-.11-.25-.21-.29-.1-.04-.29-.08-.58-.1v-.37h4.91l.04,1.63h-.32c-.05-.31-.13-.53-.26-.67-.12-.14-.29-.24-.51-.28-.22-.04-.54-.06-.97-.06h-.85v2.41h.75c.29,0,.51-.02.66-.07.14-.05.25-.13.3-.24s.1-.28.12-.5h.33v2.26h-.33c0-.26-.03-.44-.09-.56-.06-.12-.17-.19-.32-.23s-.38-.05-.68-.05h-.74v1.92c0,.24.08.41.23.52.15.11.44.16.88.16s.78-.01.99-.04c.21-.03.4-.13.57-.29s.29-.44.36-.82h.33c-.1.75-.15,1.35-.15,1.77Z" fill="#002e5e" stroke-width="0"/><path d="M170.2,118.44h-3.22v-.37c.29-.02.5-.06.63-.12s.2-.16.2-.33c0-.1-.02-.24-.07-.4l-.21-.7h-2.43l-.22.59c-.05.17-.08.31-.08.42,0,.22.08.36.24.42.16.06.39.1.69.12v.37h-2.83v-.37c.25-.01.45-.04.59-.09.14-.05.26-.14.35-.26.09-.12.19-.3.28-.55l1.86-5.09-.11-.16c.39-.13.67-.23.84-.31.17-.08.35-.19.53-.32.08.29.19.62.31,1.01l1.53,4.65c.1.3.18.52.26.66.08.14.18.24.31.31.13.07.31.11.56.14v.37ZM167.33,115.78l-.97-2.85-1.01,2.85h1.98Z" fill="#002e5e" stroke-width="0"/><path d="M175.91,116.67h.33l-.16,1.77h-5.43v-.37c.3-.02.51-.07.61-.13.11-.07.17-.19.19-.39.03-.33.05-.68.05-1.05v-2.9c0-.52-.01-.88-.04-1.07-.03-.19-.09-.33-.2-.4s-.31-.13-.6-.17v-.37h3.06v.37c-.33.02-.55.07-.65.13-.11.06-.17.19-.2.39s-.04.61-.04,1.22v2.78c0,.41.03.7.06.87s.11.28.23.35c.12.07.33.1.63.11h.43c.39,0,.69-.02.91-.07.21-.05.39-.15.53-.31.14-.16.23-.41.29-.75Z" fill="#002e5e" stroke-width="0"/><path d="M182.62,113.51c-.02-.37-.08-.64-.18-.81-.1-.17-.23-.27-.39-.31-.16-.04-.39-.06-.68-.06h-.97v5.04c0,.28.06.48.17.6.11.12.33.18.64.19v.29h-2.85v-.29c.31,0,.52-.07.64-.19.12-.12.18-.32.18-.6v-5.04h-.97c-.29,0-.52.02-.68.06-.16.04-.29.15-.39.31-.1.17-.16.44-.18.81h-.36l.05-1.91h6.27l.05,1.91h-.36Z" fill="#002e5e" stroke-width="0"/><path d="M186.55,118.44h-2.94v-.37c.26-.02.44-.06.55-.11s.18-.14.2-.24c.03-.1.04-.28.04-.53,0-.16,0-.41,0-.73v-2.88c0-.59-.01-.96-.04-1.1-.02-.19-.08-.32-.18-.38-.1-.06-.3-.11-.59-.13v-.37h2.94v.37c-.23.02-.39.05-.5.07-.1.02-.18.06-.24.12-.06.06-.1.15-.12.27-.04.17-.05.55-.05,1.13v.94c.59.04,1.12.05,1.58.05.5,0,1.05-.02,1.63-.05v-1.15c0-.46-.02-.77-.05-.93s-.1-.27-.22-.32c-.12-.06-.35-.1-.68-.13v-.37h2.99v.37c-.29.04-.49.08-.59.13-.1.05-.16.16-.18.31-.02.16-.04.48-.04.96v2.89c0,.67.01,1.12.04,1.34.02.17.09.29.19.35.1.06.29.1.56.13v.37h-2.99v-.37c.26-.03.45-.06.57-.09.11-.03.2-.07.25-.14s.09-.18.12-.34c.01-.13.02-.45.02-.95v-1.26l-.54-.03h-.33c-.3-.02-.53-.03-.69-.03-.41,0-.88.01-1.41.04h-.24v1.27c0,.51.02.86.05,1.04.03.18.1.29.2.35.1.05.32.1.65.13v.37Z" fill="#002e5e" stroke-width="0"/><path d="M9.27,75.76v9.22c0,1.95-1.1,4-4.41,4-2.99,0-4.43-1.55-4.43-4v-9.22h2.72v9.04c0,1.6.68,2.23,1.67,2.23,1.19,0,1.73-.79,1.73-2.23v-9.04h2.72Z" fill="#002e5e" stroke-width="0"/><path d="M11.7,88.76v-13h3.67l3.46,9h.04v-9h2.54v13h-3.58l-3.55-9.51h-.04v9.51h-2.54Z" fill="#002e5e" stroke-width="0"/><path d="M23.89,88.76v-13h2.72v13h-2.72Z" fill="#002e5e" stroke-width="0"/><path d="M28.04,75.76h2.83l2.02,9.45h.04l2.27-9.45h2.68l-3.44,13h-3.19l-3.21-13Z" fill="#002e5e" stroke-width="0"/><path d="M39.29,88.76v-13h7.09v2h-4.38v3.21h4.03v2h-4.03v3.8h4.52v2h-7.24Z" fill="#002e5e" stroke-width="0"/><path d="M51.16,88.76h-2.72v-13h5.02c1.85,0,3.04,1.19,3.04,3.4,0,1.66-.65,2.9-2.41,3.19v.04c.59.07,2.36.22,2.36,2.56,0,.83.05,3.28.31,3.82h-2.67c-.36-.79-.29-1.67-.29-2.52,0-1.55.14-2.86-1.94-2.86h-.7v5.38ZM51.16,81.38h1.21c1.08,0,1.39-1.08,1.39-1.91,0-1.24-.52-1.71-1.39-1.71h-1.21v3.62Z" fill="#002e5e" stroke-width="0"/><path d="M62.23,88.98c-3.37,0-4-1.98-3.85-4.23h2.72c0,1.24.05,2.29,1.55,2.29.92,0,1.37-.59,1.37-1.48,0-2.34-5.47-2.48-5.47-6.36,0-2.03.97-3.66,4.29-3.66,2.65,0,3.96,1.19,3.78,3.91h-2.65c0-.97-.16-1.96-1.26-1.96-.88,0-1.4.49-1.4,1.39,0,2.47,5.47,2.25,5.47,6.34,0,3.37-2.47,3.76-4.54,3.76Z" fill="#002e5e" stroke-width="0"/><path d="M68.9,88.76v-13h2.72v13h-2.72Z" fill="#002e5e" stroke-width="0"/><path d="M81.85,75.76v2.16h-3.02v10.84h-2.72v-10.84h-3.02v-2.16h8.77Z" fill="#002e5e" stroke-width="0"/><path d="M85.7,84.26l-3.4-8.5h2.97l1.94,5.49,2.07-5.49h2.77l-3.64,8.5v4.5h-2.72v-4.5Z" fill="#002e5e" stroke-width="0"/><path d="M96.94,82.26c0-3.44,0-6.72,4.48-6.72s4.48,3.28,4.48,6.72,0,6.72-4.48,6.72-4.48-3.31-4.48-6.72ZM103.15,82.26c0-3.33-.2-4.77-1.73-4.77s-1.73,1.44-1.73,4.77.2,4.77,1.73,4.77,1.73-1.44,1.73-4.77Z" fill="#002e5e" stroke-width="0"/><path d="M108.05,88.76v-13h6.75v2h-4.03v3.33h3.85v2h-3.85v5.67h-2.72Z" fill="#002e5e" stroke-width="0"/><path d="M120.43,88.76v-13h4.38l2.03,8.84h.04l2.16-8.84h4.23v13h-2.65v-10.03h-.04l-2.5,10.03h-2.59l-2.38-10.03h-.04v10.03h-2.65Z" fill="#002e5e" stroke-width="0"/><path d="M135.68,88.76v-13h2.72v13h-2.72Z" fill="#002e5e" stroke-width="0"/><path d="M140.76,82.26c0-3.44,0-6.72,4.48-6.72,2.77,0,3.89,1.53,3.78,4.32h-2.67c0-1.73-.31-2.38-1.12-2.38-1.53,0-1.73,1.44-1.73,4.77s.2,4.77,1.73,4.77c1.26,0,1.21-1.62,1.24-2.65h2.68c0,3.47-1.39,4.59-3.92,4.59-4.48,0-4.48-3.31-4.48-6.72Z" fill="#002e5e" stroke-width="0"/><path d="M157.01,80.96v-5.2h2.72v13h-2.72v-5.8h-3.12v5.8h-2.72v-13h2.72v5.2h3.12Z" fill="#002e5e" stroke-width="0"/><path d="M162.28,88.76v-13h2.72v13h-2.72Z" fill="#002e5e" stroke-width="0"/><path d="M173.43,79.76c.02-1.21-.18-2.27-1.62-2.27-1.69,0-1.69,2.29-1.69,4.81,0,4.07.4,4.79,1.95,4.79.45,0,.94-.11,1.35-.25v-2.88h-1.48v-2h4.2v6.59c-.74.14-2.59.43-3.67.43-4.57,0-5.09-1.89-5.09-6.82,0-3.28.16-6.61,4.61-6.61,2.66,0,4.32,1.49,4.16,4.21h-2.7Z" fill="#002e5e" stroke-width="0"/><path d="M177.69,88.76l3.6-13h3.58l3.53,13h-2.86l-.72-2.88h-3.71l-.74,2.88h-2.68ZM182.93,78.26h-.04l-1.24,5.62h2.59l-1.31-5.62Z" fill="#002e5e" stroke-width="0"/><path d="M189.9,88.76v-13h3.67l3.46,9h.04v-9h2.54v13h-3.58l-3.55-9.51h-.04v9.51h-2.54Z" fill="#002e5e" stroke-width="0"/><path d="M99.91,54.33l-18.72-25.57v18.6h7.44v18.36h-34.43v-18.36h6.98v-28.6h-6.98V.39h27.05l18.66,25.75L118.58.39h27.03v18.38h-6.97v28.6h6.97v18.36h-34.43v-18.36h7.45v-18.6l-18.73,25.57h0ZM99.91,54.33" fill="#ffcf01" stroke-width="0"/></svg>